# Blender v2.90.1 OBJ File: 'Apple.blend'
# www.blender.org
o Sphere_Sphere.001
v 0.000000 0.040000 -0.069282
v 0.000000 -0.000000 -0.080000
v 0.000000 -0.040000 -0.069282
v 0.000000 -0.069845 -0.040000
v -0.000000 0.062523 -0.000000
v 0.023511 0.067311 -0.032361
v 0.040723 0.040000 -0.056050
v 0.047023 -0.000000 -0.064721
v 0.040723 -0.040000 -0.056050
v 0.023511 -0.069845 -0.032361
v 0.038042 0.067311 -0.012361
v 0.065891 0.040000 -0.021409
v 0.076085 -0.000000 -0.024721
v 0.065891 -0.040000 -0.021409
v 0.038042 -0.069845 -0.012361
v 0.038042 0.067311 0.012361
v 0.065891 0.040000 0.021409
v 0.076085 -0.000000 0.024721
v 0.065891 -0.040000 0.021409
v 0.038042 -0.069845 0.012361
v 0.023511 0.067311 0.032361
v 0.040723 0.040000 0.056050
v 0.047023 -0.000000 0.064721
v 0.040723 -0.040000 0.056050
v 0.023511 -0.069845 0.032361
v 0.000000 0.067311 0.040000
v 0.000000 0.040000 0.069282
v -0.000000 -0.000000 0.080000
v 0.000000 -0.040000 0.069282
v 0.000000 -0.069845 0.040000
v -0.023511 0.067311 0.032361
v -0.040723 0.040000 0.056050
v -0.047023 -0.000000 0.064721
v -0.040723 -0.040000 0.056050
v -0.023511 -0.069845 0.032361
v -0.038042 0.067311 0.012361
v -0.065891 0.040000 0.021409
v -0.076085 -0.000000 0.024721
v -0.065891 -0.040000 0.021409
v -0.038042 -0.069845 0.012361
v -0.038042 0.067311 -0.012361
v -0.065891 0.040000 -0.021409
v -0.076085 -0.000000 -0.024721
v -0.065891 -0.040000 -0.021409
v -0.038042 -0.069845 -0.012361
v 0.000000 -0.065354 -0.000000
v -0.023511 0.067311 -0.032361
v -0.040723 0.040000 -0.056050
v -0.047023 -0.000000 -0.064721
v -0.040723 -0.040000 -0.056050
v -0.023511 -0.069845 -0.032361
v -0.000000 0.067311 -0.040000
v 0.023511 0.067311 -0.032361
v 0.038042 0.067311 -0.012361
v 0.038042 0.067311 0.012361
v 0.023511 0.067311 0.032361
v 0.000000 0.067311 0.040000
v -0.023511 0.067311 0.032361
v -0.038042 0.067311 0.012361
v -0.038042 0.067311 -0.012361
v -0.023511 0.067311 -0.032361
v -0.000000 0.067311 -0.040000
vt 0.525734 0.213192
vt 0.692931 0.194421
vt 0.660999 0.194421
vt 0.860128 0.486369
vt 0.760020 0.319172
vt 0.815328 0.319172
vt 0.815328 0.653566
vt 0.660999 0.767722
vt 0.760020 0.653566
vt 0.796265 0.486369
vt 0.700313 0.588084
vt 0.531886 0.678806
vt 0.668382 0.588084
vt 0.577401 0.194421
vt 0.629068 0.486369
vt 0.584783 0.588084
vt 0.615224 0.319172
vt 0.577401 0.767722
vt 0.615224 0.653566
vt 0.474068 0.194421
vt 0.422401 0.486369
vt 0.481450 0.588084
vt 0.436245 0.319172
vt 0.436245 0.653566
vt 0.291448 0.319172
vt 0.390469 0.194421
vt 0.291448 0.653566
vt 0.255204 0.486369
vt 0.397851 0.588084
vt 0.474068 0.767722
vt 0.358537 0.194421
vt 0.236141 0.653566
vt 0.191340 0.486369
vt 0.365920 0.588084
vt 0.236141 0.319172
vt 0.358537 0.767722
vt 0.291448 0.653566
vt 0.255204 0.486369
vt 0.397851 0.588084
vt 0.390469 0.194421
vt 0.291448 0.319172
vt 0.481450 0.588084
vt 0.474068 0.194421
vt 0.436245 0.319172
vt 0.390469 0.767722
vt 0.436245 0.653566
vt 0.422401 0.486369
vt 0.577401 0.194421
vt 0.615224 0.319172
vt 0.577401 0.767722
vt 0.615224 0.653566
vt 0.629068 0.486369
vt 0.584783 0.588084
vt 0.660999 0.194421
vt 0.760020 0.319172
vt 0.760020 0.653566
vt 0.796265 0.486369
vt 0.668382 0.588084
vt 0.660999 0.767722
vt 0.692931 0.767722
vt 0.390469 0.767722
vt 0.474068 0.767722
vn 0.0000 -1.0000 0.0000
vn 0.0000 -0.9130 -0.4078
vn 0.2397 -0.9130 -0.3300
vn 0.0000 0.0000 -1.0000
vn 0.5171 -0.4754 -0.7117
vn 0.0000 -0.4754 -0.8797
vn 0.0000 0.4923 -0.8704
vn 0.2247 0.9240 -0.3093
vn 0.5116 0.4923 -0.7042
vn 0.5878 0.0000 -0.8090
vn 0.0000 0.9240 -0.3823
vn 0.0000 1.0000 0.0000
vn 0.3879 -0.9130 -0.1260
vn 0.9510 0.0000 -0.3090
vn 0.3636 0.9240 -0.1181
vn 0.8367 -0.4754 -0.2719
vn 0.8278 0.4923 -0.2690
vn 0.3879 -0.9130 0.1260
vn 0.9510 0.0000 0.3090
vn 0.3636 0.9240 0.1181
vn 0.8367 -0.4754 0.2719
vn 0.8278 0.4923 0.2690
vn 0.5171 -0.4754 0.7117
vn 0.2397 -0.9130 0.3300
vn 0.5116 0.4923 0.7042
vn 0.5878 0.0000 0.8090
vn 0.2247 0.9240 0.3093
vn 0.0000 -0.9130 0.4078
vn 0.0000 0.4923 0.8704
vn 0.0000 0.0000 1.0000
vn 0.0000 0.9240 0.3823
vn 0.0000 -0.4754 0.8797
vn -0.5116 0.4923 0.7042
vn -0.5878 0.0000 0.8090
vn -0.2247 0.9240 0.3093
vn -0.2397 -0.9130 0.3300
vn -0.5171 -0.4754 0.7117
vn -0.3636 0.9240 0.1181
vn -0.3879 -0.9130 0.1260
vn -0.8367 -0.4754 0.2719
vn -0.8278 0.4923 0.2690
vn -0.9510 0.0000 0.3090
vn -0.3879 -0.9130 -0.1260
vn -0.8367 -0.4754 -0.2719
vn -0.3636 0.9240 -0.1181
vn -0.8278 0.4923 -0.2690
vn -0.9510 0.0000 -0.3090
vn -0.2397 -0.9130 -0.3300
vn -0.5171 -0.4754 -0.7117
vn -0.5116 0.4923 -0.7042
vn -0.5878 0.0000 -0.8090
vn -0.2247 0.9240 -0.3093
s 1
f 46/1/1 4/2/2 10/3/3
f 2/4/4 9/5/5 3/6/6
f 1/7/7 6/8/8 7/9/9
f 3/6/6 10/3/3 4/2/2
f 1/7/7 8/10/10 2/4/4
f 52/11/11 5/12/12 6/13/8
f 9/5/5 15/14/13 10/3/3
f 7/9/9 13/15/14 8/10/10
f 6/13/8 5/12/12 11/16/15
f 46/1/1 10/3/3 15/14/13
f 8/10/10 14/17/16 9/5/5
f 7/9/9 11/18/15 12/19/17
f 14/17/16 20/20/18 15/14/13
f 12/19/17 18/21/19 13/15/14
f 11/16/15 5/12/12 16/22/20
f 46/1/1 15/14/13 20/20/18
f 13/15/14 19/23/21 14/17/16
f 11/18/15 17/24/22 12/19/17
f 20/20/18 24/25/23 25/26/24
f 18/21/19 22/27/25 23/28/26
f 16/22/20 5/12/12 21/29/27
f 46/1/1 20/20/18 25/26/24
f 18/21/19 24/25/23 19/23/21
f 16/30/20 22/27/25 17/24/22
f 24/25/23 30/31/28 25/26/24
f 23/28/26 27/32/29 28/33/30
f 21/29/27 5/12/12 26/34/31
f 46/1/1 25/26/24 30/31/28
f 23/28/26 29/35/32 24/25/23
f 22/27/25 26/36/31 27/32/29
f 28/33/30 32/37/33 33/38/34
f 26/34/31 5/12/12 31/39/35
f 46/1/1 30/31/28 35/40/36
f 28/33/30 34/41/37 29/35/32
f 26/36/31 32/37/33 27/32/29
f 30/31/28 34/41/37 35/40/36
f 31/39/35 5/12/12 36/42/38
f 46/1/1 35/40/36 40/43/39
f 33/38/34 39/44/40 34/41/37
f 31/45/35 37/46/41 32/37/33
f 34/41/37 40/43/39 35/40/36
f 32/37/33 38/47/42 33/38/34
f 46/1/1 40/43/39 45/48/43
f 38/47/42 44/49/44 39/44/40
f 37/46/41 41/50/45 42/51/46
f 40/43/39 44/49/44 45/48/43
f 37/46/41 43/52/47 38/47/42
f 36/42/38 5/12/12 41/53/45
f 46/1/1 45/48/43 51/54/48
f 43/52/47 50/55/49 44/49/44
f 41/50/45 48/56/50 42/51/46
f 44/49/44 51/54/48 45/48/43
f 42/51/46 49/57/51 43/52/47
f 41/53/45 5/12/12 47/58/52
f 46/1/1 51/54/48 4/2/2
f 49/57/51 3/6/6 50/55/49
f 47/59/52 1/7/7 48/56/50
f 50/55/49 4/2/2 51/54/48
f 48/56/50 2/4/4 49/57/51
f 47/58/52 5/12/12 52/11/11
f 2/4/4 8/10/10 9/5/5
f 1/7/7 52/60/11 6/8/8
f 3/6/6 9/5/5 10/3/3
f 1/7/7 7/9/9 8/10/10
f 9/5/5 14/17/16 15/14/13
f 7/9/9 12/19/17 13/15/14
f 8/10/10 13/15/14 14/17/16
f 7/9/9 6/8/8 11/18/15
f 14/17/16 19/23/21 20/20/18
f 12/19/17 17/24/22 18/21/19
f 13/15/14 18/21/19 19/23/21
f 11/18/15 16/30/20 17/24/22
f 20/20/18 19/23/21 24/25/23
f 18/21/19 17/24/22 22/27/25
f 18/21/19 23/28/26 24/25/23
f 16/30/20 21/61/27 22/27/25
f 24/25/23 29/35/32 30/31/28
f 23/28/26 22/27/25 27/32/29
f 23/28/26 28/33/30 29/35/32
f 22/27/25 21/61/27 26/36/31
f 28/33/30 27/32/29 32/37/33
f 28/33/30 33/38/34 34/41/37
f 26/36/31 31/45/35 32/37/33
f 30/31/28 29/35/32 34/41/37
f 33/38/34 38/47/42 39/44/40
f 31/45/35 36/62/38 37/46/41
f 34/41/37 39/44/40 40/43/39
f 32/37/33 37/46/41 38/47/42
f 38/47/42 43/52/47 44/49/44
f 37/46/41 36/62/38 41/50/45
f 40/43/39 39/44/40 44/49/44
f 37/46/41 42/51/46 43/52/47
f 43/52/47 49/57/51 50/55/49
f 41/50/45 47/59/52 48/56/50
f 44/49/44 50/55/49 51/54/48
f 42/51/46 48/56/50 49/57/51
f 49/57/51 2/4/4 3/6/6
f 47/59/52 52/60/11 1/7/7
f 50/55/49 3/6/6 4/2/2
f 48/56/50 1/7/7 2/4/4
l 54 53
l 55 54
l 56 55
l 57 56
l 58 57
l 59 58
l 59 60
l 60 61
l 61 62
l 62 53
